<?xml version="1.0" encoding="utf-8"?>
<!-- Generator: Adobe Illustrator 16.0.1, SVG Export Plug-In . SVG Version: 6.00 Build 0)  -->
<!DOCTYPE svg PUBLIC "-//W3C//DTD SVG 1.1//EN" "http://www.w3.org/Graphics/SVG/1.1/DTD/svg11.dtd">
<svg version="1.1" id="Layer_1" xmlns="http://www.w3.org/2000/svg" xmlns:xlink="http://www.w3.org/1999/xlink" x="0px" y="0px"
	 width="224px" height="66px" viewBox="0 0 224 66" enable-background="new 0 0 224 66" xml:space="preserve">
<g opacity="0.25">
	<path d="M49.999,33.661c-0.048-5.32,4.382-7.907,4.584-8.028c-2.509-3.636-6.396-4.132-7.764-4.171
		c-3.265-0.342-6.433,1.94-8.096,1.94c-1.697,0-4.258-1.908-7.019-1.854c-3.553,0.055-6.877,2.101-8.699,5.277
		c-3.762,6.473-0.957,15.987,2.647,21.221c1.803,2.563,3.91,5.427,6.667,5.324c2.698-0.106,3.706-1.709,6.961-1.709
		c3.226,0,4.172,1.709,6.985,1.646c2.896-0.043,4.719-2.574,6.458-5.162c2.083-2.934,2.92-5.83,2.953-5.979
		C55.61,42.145,50.055,40.035,49.999,33.661z"/>
	<path d="M44.686,18.019c1.45-1.806,2.443-4.259,2.168-6.75c-2.101,0.093-4.726,1.444-6.239,3.209
		c-1.338,1.555-2.533,4.102-2.225,6.5C40.75,21.152,43.172,19.793,44.686,18.019z"/>
	<g>
		<path d="M89.074,53.003h-3.769l-2.066-6.45H76.06l-1.968,6.45h-3.671l7.114-21.964h4.394L89.074,53.003z M82.617,43.846
			l-1.868-5.734c-0.197-0.588-0.57-1.967-1.115-4.139H79.57c-0.221,0.936-0.571,2.314-1.051,4.139l-1.835,5.734H82.617z"/>
		<path d="M107.333,44.891c0,2.694-0.734,4.821-2.208,6.385c-1.318,1.393-2.957,2.086-4.911,2.086c-2.11,0-3.628-0.746-4.549-2.245
			v8.311h-3.539V42.372c0-1.692-0.044-3.427-0.132-5.206h3.113l0.197,2.511h0.067c1.18-1.892,2.972-2.84,5.374-2.84
			c1.881,0,3.45,0.738,4.705,2.215C106.704,40.534,107.333,42.479,107.333,44.891z M103.727,45.02c0-1.541-0.349-2.812-1.049-3.812
			c-0.766-1.041-1.793-1.562-3.082-1.562c-0.874,0-1.667,0.291-2.375,0.863c-0.71,0.577-1.177,1.331-1.395,2.268
			c-0.108,0.436-0.164,0.789-0.164,1.067v2.646c0,1.146,0.355,2.119,1.065,2.918c0.712,0.789,1.635,1.188,2.77,1.188
			c1.334,0,2.372-0.513,3.112-1.529C103.356,48.039,103.727,46.691,103.727,45.02z"/>
		<path d="M125.656,44.891c0,2.694-0.736,4.821-2.209,6.385c-1.318,1.393-2.957,2.086-4.912,2.086c-2.109,0-3.627-0.746-4.549-2.245
			v8.311h-3.542V42.372c0-1.692-0.045-3.427-0.131-5.206h3.116l0.195,2.511h0.064c1.18-1.892,2.973-2.84,5.375-2.84
			c1.879,0,3.447,0.738,4.705,2.215C125.025,40.534,125.656,42.479,125.656,44.891z M122.049,45.02c0-1.541-0.35-2.812-1.051-3.812
			c-0.766-1.041-1.789-1.562-3.078-1.562c-0.875,0-1.666,0.291-2.379,0.863c-0.709,0.577-1.174,1.331-1.391,2.268
			c-0.109,0.436-0.168,0.789-0.168,1.067v2.646c0,1.146,0.354,2.119,1.064,2.918c0.709,0.789,1.633,1.188,2.771,1.188
			c1.334,0,2.373-0.513,3.113-1.529C121.676,48.039,122.049,46.691,122.049,45.02z"/>
		<path d="M146.143,46.843c0,1.87-0.656,3.39-1.963,4.563c-1.438,1.281-3.445,1.923-6.02,1.923c-2.379,0-4.283-0.456-5.721-1.369
			l0.816-2.933c1.555,0.912,3.26,1.369,5.113,1.369c1.336,0,2.373-0.299,3.111-0.896c0.742-0.6,1.117-1.396,1.117-2.395
			c0-0.894-0.309-1.642-0.92-2.25c-0.611-0.604-1.625-1.174-3.047-1.689c-3.869-1.436-5.805-3.535-5.805-6.291
			c0-1.802,0.684-3.275,2.047-4.432c1.365-1.15,3.174-1.728,5.428-1.728c2.01,0,3.688,0.348,5.014,1.043l-0.889,2.869
			c-1.25-0.673-2.662-1.01-4.244-1.01c-1.248,0-2.229,0.306-2.93,0.91c-0.588,0.547-0.889,1.205-0.889,1.992
			c0,0.865,0.342,1.586,1.02,2.15c0.586,0.52,1.66,1.086,3.211,1.691c1.902,0.765,3.299,1.649,4.195,2.671
			C145.693,44.053,146.143,45.325,146.143,46.843z"/>
		<path d="M157.875,39.807h-3.904v7.689c0,1.955,0.688,2.932,2.066,2.932c0.633,0,1.158-0.054,1.572-0.166l0.098,2.672
			c-0.697,0.26-1.615,0.393-2.75,0.393c-1.4,0-2.49-0.43-3.281-1.273c-0.787-0.848-1.18-2.27-1.18-4.27V39.8h-2.322v-2.642h2.322
			V34.26l3.475-1.044v3.942h3.904V39.807L157.875,39.807z"/>
		<path d="M175.443,44.954c0,2.435-0.699,4.433-2.104,5.996c-1.461,1.608-3.404,2.411-5.832,2.411c-2.342,0-4.201-0.771-5.59-2.312
			c-1.391-1.543-2.082-3.484-2.082-5.83c0-2.453,0.721-4.464,2.146-6.027c1.431-1.562,3.358-2.346,5.785-2.346
			c2.336,0,4.215,0.773,5.64,2.313C174.768,40.654,175.443,42.585,175.443,44.954z M171.773,45.035c0-1.451-0.312-2.695-0.945-3.736
			c-0.742-1.258-1.809-1.886-3.182-1.886c-1.418,0-2.508,0.628-3.246,1.886c-0.637,1.041-0.949,2.309-0.949,3.803
			c0,1.451,0.312,2.699,0.949,3.737c0.766,1.261,1.834,1.89,3.219,1.89c1.352,0,2.412-0.646,3.182-1.918
			C171.447,47.742,171.773,46.488,171.773,45.035z"/>
		<path d="M186.953,40.261c-0.35-0.062-0.725-0.097-1.115-0.097c-1.246,0-2.209,0.463-2.887,1.402
			c-0.588,0.824-0.883,1.867-0.883,3.127v8.31h-3.539V42.152c0-1.82-0.035-3.487-0.104-4.984h3.082l0.13,3.03h0.103
			c0.372-1.042,0.963-1.882,1.766-2.511c0.791-0.568,1.642-0.853,2.56-0.853c0.328,0,0.623,0.024,0.886,0.063L186.953,40.261
			L186.953,40.261z"/>
		<path d="M202.783,44.335c0,0.631-0.043,1.162-0.131,1.597h-10.617c0.037,1.564,0.555,2.762,1.541,3.588
			c0.895,0.735,2.053,1.104,3.473,1.104c1.572,0,3.006-0.245,4.297-0.748l0.553,2.442c-1.508,0.652-3.287,0.979-5.34,0.979
			c-2.471,0-4.41-0.723-5.82-2.165c-1.404-1.444-2.111-3.386-2.111-5.815c0-2.387,0.652-4.375,1.967-5.961
			c1.375-1.691,3.234-2.541,5.572-2.541c2.295,0,4.033,0.85,5.213,2.541C202.312,40.695,202.783,42.359,202.783,44.335z
			 M199.408,43.423c0.023-1.044-0.209-1.942-0.688-2.704c-0.613-0.982-1.557-1.472-2.82-1.472c-1.158,0-2.102,0.478-2.818,1.435
			c-0.586,0.762-0.936,1.678-1.047,2.734L199.408,43.423L199.408,43.423z"/>
	</g>
	<g>
		<g>
			<path d="M75.039,23.275c-0.983,0-1.835-0.049-2.545-0.129v-10.62c0.918-0.142,1.916-0.224,2.996-0.224
				c4.06,0,5.931,1.985,5.931,5.222C81.42,21.258,79.212,23.275,75.039,23.275z M75.632,13.664c-0.548,0-1.014,0.032-1.4,0.113
				v8.071c0.21,0.032,0.61,0.049,1.177,0.049c2.659,0,4.173-1.506,4.173-4.324C79.582,15.06,78.211,13.664,75.632,13.664z"/>
			<path d="M87.244,23.355c-2.286,0-3.77-1.698-3.77-4.003c0-2.403,1.515-4.117,3.899-4.117c2.255,0,3.771,1.617,3.771,3.989
				C91.144,21.657,89.582,23.355,87.244,23.355z M87.312,16.499c-1.258,0-2.062,1.169-2.062,2.804c0,1.602,0.82,2.771,2.045,2.771
				c1.224,0,2.046-1.25,2.046-2.804C89.34,17.683,88.535,16.499,87.312,16.499z"/>
			<path d="M104.189,15.395l-2.448,7.784h-1.595l-1.016-3.381c-0.256-0.848-0.467-1.682-0.629-2.515h-0.032
				c-0.128,0.85-0.369,1.699-0.629,2.515l-1.078,3.381h-1.611l-2.304-7.784h1.786l0.887,3.7c0.209,0.882,0.385,1.714,0.532,2.498
				h0.034c0.126-0.654,0.335-1.473,0.642-2.481l1.112-3.715h1.419l1.064,3.636c0.257,0.882,0.468,1.745,0.63,2.564h0.045
				c0.113-0.802,0.292-1.65,0.532-2.564l0.951-3.636L104.189,15.395L104.189,15.395z"/>
			<path d="M113.205,23.179h-1.74v-4.471c0-1.376-0.531-2.066-1.579-2.066c-1.031,0-1.741,0.882-1.741,1.907v4.63h-1.738v-5.561
				c0-0.687-0.016-1.425-0.064-2.226h1.53l0.081,1.201h0.049c0.467-0.832,1.417-1.359,2.48-1.359c1.644,0,2.724,1.25,2.724,3.283
				L113.205,23.179L113.205,23.179z"/>
			<path d="M118.002,23.179h-1.74V11.823h1.74V23.179z"/>
			<path d="M124.346,23.355c-2.285,0-3.77-1.698-3.77-4.003c0-2.403,1.512-4.117,3.898-4.117c2.256,0,3.77,1.617,3.77,3.989
				C128.246,21.657,126.682,23.355,124.346,23.355z M124.412,16.499c-1.258,0-2.062,1.169-2.062,2.804
				c0,1.602,0.822,2.771,2.043,2.771c1.225,0,2.043-1.25,2.043-2.804C126.439,17.683,125.635,16.499,124.412,16.499z"/>
			<path d="M135.104,23.179l-0.127-0.896h-0.043c-0.531,0.721-1.307,1.071-2.289,1.071c-1.406,0-2.398-0.977-2.398-2.29
				c0-1.921,1.678-2.916,4.574-2.916v-0.143c0-1.025-0.543-1.538-1.625-1.538c-0.771,0-1.447,0.193-2.047,0.577l-0.354-1.138
				c0.725-0.448,1.627-0.673,2.689-0.673c2.043,0,3.078,1.072,3.078,3.219v2.869c0,0.785,0.033,1.393,0.109,1.856h-1.568V23.179
				L135.104,23.179z M134.865,19.302c-1.934,0-2.902,0.466-2.902,1.569c0,0.815,0.5,1.215,1.193,1.215
				c0.885,0,1.709-0.67,1.709-1.582V19.302z"/>
			<path d="M145.01,23.179l-0.082-1.25h-0.049c-0.498,0.944-1.338,1.426-2.512,1.426c-1.891,0-3.287-1.65-3.287-3.973
				c0-2.434,1.449-4.148,3.43-4.148c1.047,0,1.789,0.352,2.207,1.058h0.035v-4.469h1.74v9.259c0,0.752,0.018,1.457,0.064,2.098
				L145.01,23.179L145.01,23.179z M144.752,18.599c0-1.09-0.725-2.018-1.834-2.018c-1.291,0-2.078,1.136-2.078,2.736
				c0,1.57,0.818,2.644,2.045,2.644c1.094,0,1.867-0.944,1.867-2.066V18.599L144.752,18.599z"/>
			<path d="M157.535,23.355c-2.285,0-3.771-1.698-3.771-4.003c0-2.403,1.516-4.117,3.9-4.117c2.254,0,3.77,1.617,3.77,3.989
				C161.436,21.657,159.873,23.355,157.535,23.355z M157.6,16.499c-1.254,0-2.061,1.169-2.061,2.804
				c0,1.602,0.822,2.771,2.045,2.771s2.043-1.25,2.043-2.804C159.631,17.683,158.826,16.499,157.6,16.499z"/>
			<path d="M170.791,23.179h-1.742v-4.471c0-1.376-0.531-2.066-1.578-2.066c-1.031,0-1.738,0.882-1.738,1.907v4.63h-1.74v-5.561
				c0-0.687-0.018-1.425-0.064-2.226h1.531l0.08,1.201h0.049c0.469-0.832,1.418-1.36,2.479-1.36c1.646,0,2.727,1.249,2.727,3.281
				L170.791,23.179L170.791,23.179z"/>
			<path d="M182.496,16.692h-1.912v3.78c0,0.962,0.334,1.442,1.01,1.442c0.311,0,0.564-0.034,0.773-0.081l0.049,1.313
				c-0.338,0.13-0.789,0.194-1.348,0.194c-1.373,0-2.193-0.753-2.193-2.725V16.69h-1.143v-1.297h1.143V13.97l1.709-0.515v1.938
				h1.912V16.692L182.496,16.692z"/>
			<path d="M191.709,23.179h-1.738v-4.437c0-1.395-0.531-2.097-1.58-2.097c-0.898,0-1.74,0.607-1.74,1.84v4.693h-1.736V11.823h1.736
				v4.676h0.033c0.549-0.848,1.342-1.265,2.354-1.265c1.657,0,2.672,1.279,2.672,3.315L191.709,23.179L191.709,23.179z"/>
			<path d="M201.145,19.703h-5.221c0.031,1.476,1.014,2.307,2.467,2.307c0.771,0,1.482-0.129,2.109-0.369l0.271,1.201
				c-0.742,0.32-1.611,0.48-2.627,0.48c-2.447,0-3.898-1.538-3.898-3.923c0-2.386,1.484-4.182,3.701-4.182
				c2,0,3.256,1.475,3.256,3.701C201.209,19.223,201.193,19.496,201.145,19.703z M199.549,18.47c0-1.202-0.609-2.05-1.723-2.05
				c-0.998,0-1.789,0.863-1.902,2.05H199.549z"/>
		</g>
	</g>
</g>
<g>
	<path fill="#FFFFFF" d="M50.018,32.652c-0.048-5.32,4.382-7.907,4.584-8.028c-2.509-3.636-6.396-4.132-7.764-4.171
		c-3.265-0.342-6.433,1.94-8.096,1.94c-1.697,0-4.258-1.908-7.019-1.854c-3.553,0.055-6.877,2.101-8.699,5.277
		c-3.762,6.473-0.957,15.989,2.647,21.222c1.803,2.563,3.91,5.426,6.667,5.323c2.698-0.105,3.706-1.709,6.961-1.709
		c3.226,0,4.172,1.709,6.985,1.646c2.896-0.042,4.719-2.573,6.458-5.161c2.083-2.934,2.92-5.83,2.953-5.979
		C55.629,41.136,50.074,39.027,50.018,32.652z"/>
	<path fill="#FFFFFF" d="M44.705,17.011c1.45-1.806,2.443-4.259,2.168-6.75c-2.101,0.093-4.726,1.444-6.239,3.209
		c-1.338,1.555-2.533,4.102-2.225,6.5C40.769,20.144,43.191,18.785,44.705,17.011z"/>
	<g>
		<path fill="#FFFFFF" d="M89.093,51.995h-3.769l-2.066-6.45h-7.179l-1.968,6.45H70.44l7.114-21.965h4.394L89.093,51.995z
			 M82.636,42.837l-1.868-5.733c-0.197-0.588-0.57-1.967-1.115-4.14h-0.064c-0.221,0.935-0.571,2.313-1.051,4.14l-1.835,5.733
			H82.636z"/>
		<path fill="#FFFFFF" d="M107.352,43.882c0,2.695-0.734,4.822-2.208,6.386c-1.318,1.393-2.957,2.086-4.911,2.086
			c-2.11,0-3.628-0.748-4.549-2.246v8.312h-3.539V41.364c0-1.692-0.044-3.427-0.132-5.206h3.113l0.197,2.511h0.067
			c1.18-1.892,2.972-2.84,5.374-2.84c1.881,0,3.45,0.737,4.705,2.215C106.723,39.525,107.352,41.471,107.352,43.882z
			 M103.746,44.011c0-1.54-0.349-2.812-1.049-3.812c-0.766-1.041-1.793-1.563-3.082-1.563c-0.874,0-1.667,0.29-2.375,0.864
			c-0.71,0.577-1.177,1.331-1.395,2.268c-0.108,0.436-0.164,0.789-0.164,1.067v2.646c0,1.146,0.355,2.119,1.065,2.918
			c0.712,0.789,1.635,1.188,2.77,1.188c1.334,0,2.372-0.513,3.112-1.529C103.375,47.031,103.746,45.684,103.746,44.011z"/>
		<path fill="#FFFFFF" d="M125.676,43.882c0,2.695-0.736,4.822-2.209,6.386c-1.318,1.393-2.957,2.086-4.912,2.086
			c-2.109,0-3.627-0.748-4.549-2.246v8.312h-3.54V41.364c0-1.692-0.045-3.427-0.131-5.206h3.113l0.196,2.511h0.065
			c1.181-1.892,2.972-2.84,5.376-2.84c1.878,0,3.447,0.737,4.705,2.215C125.045,39.525,125.676,41.471,125.676,43.882z
			 M122.068,44.011c0-1.54-0.353-2.812-1.051-3.812c-0.768-1.041-1.791-1.563-3.08-1.563c-0.873,0-1.666,0.29-2.377,0.864
			c-0.711,0.577-1.176,1.331-1.394,2.268c-0.106,0.436-0.168,0.789-0.168,1.067v2.646c0,1.146,0.354,2.119,1.065,2.918
			c0.709,0.789,1.631,1.188,2.771,1.188c1.334,0,2.372-0.513,3.112-1.529C121.695,47.031,122.068,45.684,122.068,44.011z"/>
		<path fill="#FFFFFF" d="M146.161,45.835c0,1.87-0.656,3.39-1.963,4.563c-1.438,1.281-3.445,1.922-6.019,1.922
			c-2.382,0-4.283-0.455-5.723-1.368l0.816-2.933c1.554,0.912,3.259,1.369,5.113,1.369c1.336,0,2.373-0.301,3.113-0.896
			c0.742-0.6,1.117-1.396,1.117-2.395c0-0.894-0.311-1.642-0.92-2.25c-0.612-0.604-1.627-1.175-3.049-1.689
			c-3.867-1.436-5.803-3.535-5.803-6.291c0-1.803,0.684-3.276,2.045-4.433c1.364-1.15,3.176-1.728,5.428-1.728
			c2.012,0,3.687,0.348,5.016,1.043l-0.889,2.869c-1.252-0.674-2.663-1.011-4.244-1.011c-1.248,0-2.229,0.306-2.93,0.913
			c-0.59,0.545-0.891,1.205-0.891,1.991c0,0.865,0.342,1.587,1.02,2.15c0.588,0.521,1.66,1.086,3.213,1.69
			c1.9,0.766,3.299,1.65,4.193,2.67C145.713,43.045,146.161,44.316,146.161,45.835z"/>
		<path fill="#FFFFFF" d="M157.895,38.798h-3.902v7.69c0,1.955,0.688,2.932,2.064,2.932c0.633,0,1.157-0.054,1.572-0.166
			l0.098,2.672c-0.697,0.26-1.615,0.391-2.75,0.391c-1.399,0-2.49-0.428-3.281-1.271c-0.786-0.85-1.18-2.271-1.18-4.271V38.79
			h-2.322v-2.642h2.322v-2.897l3.477-1.045v3.942h3.902V38.798L157.895,38.798z"/>
		<path fill="#FFFFFF" d="M175.463,43.945c0,2.435-0.699,4.434-2.102,5.996c-1.463,1.607-3.407,2.412-5.834,2.412
			c-2.34,0-4.201-0.771-5.59-2.312c-1.389-1.543-2.082-3.484-2.082-5.83c0-2.454,0.721-4.464,2.146-6.027
			c1.431-1.562,3.358-2.347,5.785-2.347c2.337,0,4.215,0.774,5.639,2.313C174.786,39.646,175.463,41.577,175.463,43.945z
			 M171.792,44.027c0-1.451-0.312-2.695-0.944-3.736c-0.742-1.258-1.809-1.887-3.182-1.887c-1.419,0-2.508,0.629-3.246,1.887
			c-0.637,1.041-0.949,2.309-0.949,3.802c0,1.452,0.312,2.7,0.949,3.738c0.766,1.26,1.834,1.89,3.219,1.89
			c1.353,0,2.412-0.646,3.182-1.919C171.466,46.734,171.792,45.48,171.792,44.027z"/>
		<path fill="#FFFFFF" d="M186.973,39.253c-0.351-0.063-0.726-0.097-1.115-0.097c-1.246,0-2.209,0.463-2.887,1.402
			c-0.589,0.823-0.884,1.866-0.884,3.127v8.31h-3.539V41.145c0-1.819-0.034-3.486-0.103-4.983h3.08l0.131,3.028h0.101
			c0.374-1.041,0.964-1.881,1.767-2.51c0.791-0.568,1.643-0.852,2.561-0.852c0.327,0,0.622,0.025,0.885,0.064L186.973,39.253
			L186.973,39.253z"/>
		<path fill="#FFFFFF" d="M202.802,43.327c0,0.631-0.042,1.162-0.13,1.596h-10.617c0.037,1.565,0.555,2.763,1.541,3.588
			c0.896,0.736,2.053,1.105,3.473,1.105c1.572,0,3.007-0.245,4.298-0.748l0.554,2.442c-1.508,0.65-3.287,0.979-5.34,0.979
			c-2.473,0-4.41-0.723-5.82-2.165c-1.406-1.444-2.113-3.386-2.113-5.815c0-2.387,0.654-4.375,1.969-5.961
			c1.375-1.693,3.232-2.541,5.57-2.541c2.297,0,4.032,0.848,5.215,2.541C202.332,39.688,202.802,41.352,202.802,43.327z
			 M199.427,42.415c0.024-1.044-0.208-1.942-0.688-2.704c-0.611-0.982-1.555-1.472-2.817-1.472c-1.157,0-2.101,0.477-2.817,1.435
			c-0.586,0.762-0.938,1.678-1.047,2.734L199.427,42.415L199.427,42.415z"/>
	</g>
	<g>
		<g>
			<path fill="#FFFFFF" d="M75.058,22.267c-0.983,0-1.835-0.049-2.545-0.129v-10.62c0.918-0.142,1.916-0.224,2.996-0.224
				c4.06,0,5.931,1.985,5.931,5.222C81.439,20.25,79.231,22.267,75.058,22.267z M75.651,12.655c-0.548,0-1.014,0.032-1.4,0.113
				v8.071c0.21,0.032,0.61,0.049,1.177,0.049c2.659,0,4.173-1.506,4.173-4.324C79.601,14.052,78.23,12.655,75.651,12.655z"/>
			<path fill="#FFFFFF" d="M87.263,22.347c-2.286,0-3.77-1.698-3.77-4.003c0-2.403,1.515-4.117,3.899-4.117
				c2.255,0,3.771,1.617,3.771,3.989C91.163,20.648,89.601,22.347,87.263,22.347z M87.331,15.49c-1.258,0-2.062,1.169-2.062,2.804
				c0,1.602,0.82,2.771,2.045,2.771c1.224,0,2.046-1.25,2.046-2.804C89.359,16.675,88.554,15.49,87.331,15.49z"/>
			<path fill="#FFFFFF" d="M104.208,14.387l-2.448,7.784h-1.595l-1.016-3.381c-0.256-0.848-0.467-1.682-0.629-2.515h-0.032
				c-0.128,0.85-0.369,1.699-0.629,2.515l-1.078,3.381H95.17l-2.304-7.784h1.786l0.887,3.7c0.209,0.882,0.385,1.714,0.532,2.498
				h0.034c0.126-0.654,0.335-1.473,0.642-2.481l1.112-3.715h1.419l1.064,3.636c0.257,0.882,0.468,1.745,0.63,2.564h0.045
				c0.113-0.802,0.292-1.65,0.532-2.564l0.951-3.636L104.208,14.387L104.208,14.387z"/>
			<path fill="#FFFFFF" d="M113.225,22.171h-1.74V17.7c0-1.376-0.531-2.066-1.579-2.066c-1.031,0-1.741,0.882-1.741,1.907v4.63
				h-1.738V16.61c0-0.687-0.016-1.425-0.064-2.226h1.53l0.081,1.201h0.049c0.467-0.832,1.417-1.359,2.48-1.359
				c1.644,0,2.724,1.25,2.724,3.283L113.225,22.171L113.225,22.171z"/>
			<path fill="#FFFFFF" d="M118.021,22.171h-1.742V10.814h1.742V22.171z"/>
			<path fill="#FFFFFF" d="M124.365,22.347c-2.286,0-3.77-1.698-3.77-4.003c0-2.403,1.512-4.117,3.896-4.117
				c2.257,0,3.771,1.617,3.771,3.989C128.266,20.648,126.701,22.347,124.365,22.347z M124.432,15.49
				c-1.258,0-2.062,1.169-2.062,2.804c0,1.602,0.821,2.771,2.044,2.771c1.225,0,2.043-1.25,2.043-2.804
				C126.458,16.675,125.654,15.49,124.432,15.49z"/>
			<path fill="#FFFFFF" d="M135.122,22.171l-0.126-0.896h-0.044c-0.531,0.721-1.308,1.071-2.289,1.071
				c-1.405,0-2.399-0.977-2.399-2.29c0-1.921,1.678-2.916,4.576-2.916v-0.143c0-1.025-0.544-1.538-1.626-1.538
				c-0.772,0-1.448,0.193-2.046,0.577l-0.354-1.138c0.725-0.448,1.625-0.673,2.688-0.673c2.044,0,3.079,1.072,3.079,3.219v2.869
				c0,0.785,0.032,1.393,0.11,1.856h-1.569V22.171L135.122,22.171z M134.884,18.294c-1.933,0-2.901,0.466-2.901,1.569
				c0,0.815,0.5,1.215,1.193,1.215c0.885,0,1.708-0.67,1.708-1.582V18.294L134.884,18.294z"/>
			<path fill="#FFFFFF" d="M145.027,22.171l-0.08-1.25h-0.049c-0.5,0.944-1.34,1.426-2.515,1.426c-1.891,0-3.284-1.65-3.284-3.973
				c0-2.434,1.447-4.148,3.428-4.148c1.049,0,1.791,0.352,2.209,1.058h0.033v-4.469h1.742v9.259c0,0.752,0.018,1.457,0.062,2.098
				L145.027,22.171L145.027,22.171z M144.771,17.591c0-1.09-0.727-2.018-1.834-2.018c-1.291,0-2.078,1.136-2.078,2.736
				c0,1.57,0.816,2.644,2.045,2.644c1.094,0,1.867-0.944,1.867-2.066V17.591L144.771,17.591z"/>
			<path fill="#FFFFFF" d="M157.555,22.347c-2.285,0-3.771-1.698-3.771-4.003c0-2.403,1.515-4.117,3.899-4.117
				c2.254,0,3.771,1.617,3.771,3.989C161.455,20.648,159.893,22.347,157.555,22.347z M157.619,15.49
				c-1.256,0-2.061,1.169-2.061,2.804c0,1.602,0.82,2.771,2.043,2.771c1.224,0,2.043-1.25,2.043-2.804
				C159.65,16.675,158.846,15.49,157.619,15.49z"/>
			<path fill="#FFFFFF" d="M170.811,22.171h-1.742V17.7c0-1.376-0.529-2.066-1.577-2.066c-1.031,0-1.738,0.882-1.738,1.907v4.63
				h-1.739V16.61c0-0.687-0.018-1.425-0.064-2.226h1.529l0.082,1.201h0.049c0.467-0.832,1.416-1.36,2.479-1.36
				c1.645,0,2.725,1.249,2.725,3.281v4.665H170.811z"/>
			<path fill="#FFFFFF" d="M182.516,15.684h-1.912v3.78c0,0.962,0.334,1.442,1.01,1.442c0.312,0,0.564-0.034,0.773-0.081
				l0.049,1.313c-0.338,0.13-0.789,0.194-1.349,0.194c-1.372,0-2.192-0.753-2.192-2.725v-3.925h-1.143v-1.297h1.143V12.96
				l1.709-0.515v1.938h1.912V15.684L182.516,15.684z"/>
			<path fill="#FFFFFF" d="M191.729,22.171h-1.737v-4.437c0-1.395-0.53-2.097-1.579-2.097c-0.9,0-1.741,0.607-1.741,1.84v4.693
				h-1.737V10.814h1.737v4.676h0.034c0.548-0.848,1.341-1.265,2.354-1.265c1.656,0,2.67,1.279,2.67,3.315V22.171L191.729,22.171z"/>
			<path fill="#FFFFFF" d="M201.163,18.694h-5.222c0.033,1.476,1.016,2.307,2.469,2.307c0.771,0,1.48-0.129,2.109-0.369l0.271,1.201
				c-0.741,0.32-1.61,0.48-2.626,0.48c-2.448,0-3.898-1.538-3.898-3.923c0-2.386,1.484-4.182,3.7-4.182
				c2.001,0,3.257,1.475,3.257,3.701C201.229,18.215,201.213,18.487,201.163,18.694z M199.566,17.462c0-1.202-0.608-2.05-1.721-2.05
				c-1,0-1.791,0.863-1.904,2.05H199.566z"/>
		</g>
	</g>
</g>
</svg>
